<?xml version="1.0" ?><!DOCTYPE svg  PUBLIC '-//W3C//DTD SVG 1.1//EN'  'http://www.w3.org/Graphics/SVG/1.1/DTD/svg11.dtd'><svg height="170px" style="enable-background:new 0 0 168 170;" version="1.1" viewBox="0 0 168 170" width="168px" xml:space="preserve" xmlns="http://www.w3.org/2000/svg" xmlns:xlink="http://www.w3.org/1999/xlink"><style type="text/css">
<![CDATA[
	.st0{fill:#EF3E42;}
	.st1{fill:#54B948;}
	.st2{fill:#FFC425;}
	.st3{fill:#FFFFFF;}
	.st4{fill:none;}
]]>
</style><defs/><polygon class="st1" points="18.5,14.7 152.4,14.7 152.4,148.6 18.5,148.6 18.5,14.7 "/><path class="st3" d="M70.6,57.8c0,4,3.3,7.3,7.3,7.3c4.1,0,7.3-3.3,7.3-7.3c0-4-3.3-7.3-7.3-7.3C73.8,50.4,70.6,53.7,70.6,57.8  L70.6,57.8z M49.1,27.8H117v80.5h-16.1L100,95.5c-0.4-5.5-1.5-7.9-2.7-10.8l-4.1-9.3h7.4l5.8,9.5c0.6,1.1,1.8,1.9,3.1,1.9  c1.9,0,3.5-1.6,3.5-3.5c0-0.6-0.2-1.1-0.4-1.6c-1.2-2.3-4.4-8-6-10.8c-1.6-2.8-4.6-3.6-8.2-3.6H82.5c-4.4,0-7.4,2.8-8.9,5.1  c-1.5,2.2-6.5,9.6-6.5,9.6H56.4c-2.1,0-3.7,1.6-3.7,3.7c0,2,1.6,3.7,3.7,3.7l12.2,0c1.9,0,2.9-0.4,4-2.1c1.2-1.7,5-6.9,5-6.9  L83,92.7l-14.4,32.5c-0.2,0.4-0.2,0.9-0.2,1.4c0,2.3,1.8,4.1,4.1,4.1c1.5,0,2.9-0.9,3.6-2.1l14.8-31l1.2,13.8c0.3,3.2,2.3,5,5.3,5  H117v19.2H49.1V27.8L49.1,27.8z"/><path d="M162,5.2v153H9V5.2H162L162,5.2z M160.8,6.3H10.2v150.6h150.6V6.3L160.8,6.3z"/><rect class="st4" height="170" id="_x3C_Slice_x3E__48_" width="168"/></svg>